<?xml version="1.0" encoding="UTF-8" standalone="no"?>
<!-- Created with Inkscape (http://www.inkscape.org/) -->

<svg
   xmlns:dc="http://purl.org/dc/elements/1.1/"
   xmlns:cc="http://creativecommons.org/ns#"
   xmlns:rdf="http://www.w3.org/1999/02/22-rdf-syntax-ns#"
   xmlns:svg="http://www.w3.org/2000/svg"
   xmlns="http://www.w3.org/2000/svg"
   xmlns:sodipodi="http://sodipodi.sourceforge.net/DTD/sodipodi-0.dtd"
   xmlns:inkscape="http://www.inkscape.org/namespaces/inkscape"
   id="svg2"
   version="1.1"
   inkscape:version="0.91 r13725"
   xml:space="preserve"
   width="765"
   height="990"
   viewBox="0 0 765 990"
   sodipodi:docname="Lasercut_bottom_white_20131025b-2.svg"><metadata
     id="metadata8"><rdf:RDF><cc:Work
         rdf:about=""><dc:format>image/svg+xml</dc:format><dc:type
           rdf:resource="http://purl.org/dc/dcmitype/StillImage" /><dc:title></dc:title></cc:Work></rdf:RDF></metadata><defs
     id="defs6"><clipPath
       clipPathUnits="userSpaceOnUse"
       id="clipPath16"><path
         d="M 0,792 612,792 612,0 0,0 0,792 Z"
         id="path18"
         inkscape:connector-curvature="0" /></clipPath></defs><sodipodi:namedview
     pagecolor="#ffffff"
     bordercolor="#666666"
     borderopacity="1"
     objecttolerance="10"
     gridtolerance="10"
     guidetolerance="10"
     inkscape:pageopacity="0"
     inkscape:pageshadow="2"
     inkscape:window-width="640"
     inkscape:window-height="480"
     id="namedview4"
     showgrid="false"
     inkscape:zoom="0.27749369"
     inkscape:cx="382.5"
     inkscape:cy="495"
     inkscape:window-x="0"
     inkscape:window-y="0"
     inkscape:window-maximized="0"
     inkscape:current-layer="g10" /><g
     id="g10"
     inkscape:groupmode="layer"
     inkscape:label="Lasercut_bottom_white_20131025b-2"
     transform="matrix(1.25,0,0,-1.25,0,990)"><g
       id="g12"><g
         id="g14"
         clip-path="url(#clipPath16)"><g
           id="g20"
           transform="translate(412.5527,290.7646)"><path
             d="m 0,0 c 0,1.409 -1.143,2.551 -2.552,2.551 -1.409,0 -2.551,-1.142 -2.551,-2.551 0,-1.409 1.142,-2.551 2.551,-2.551 C -1.143,-2.551 0,-1.409 0,0 Z"
             style="fill:none;stroke:#000000;stroke-width:0.99199998;stroke-linecap:round;stroke-linejoin:round;stroke-miterlimit:10;stroke-dasharray:none;stroke-opacity:1"
             id="path22"
             inkscape:connector-curvature="0" /></g><g
           id="g24"
           transform="translate(542.0957,242.5752)"><path
             d="m 0,0 c 0,49.472 -40.104,89.575 -89.575,89.575 -49.471,0 -89.574,-40.103 -89.574,-89.575 0,-49.471 40.103,-89.574 89.574,-89.574 C -40.104,-89.574 0,-49.471 0,0 Z"
             style="fill:none;stroke:#000000;stroke-width:0.99199998;stroke-linecap:round;stroke-linejoin:round;stroke-miterlimit:10;stroke-dasharray:none;stroke-opacity:1"
             id="path26"
             inkscape:connector-curvature="0" /></g><g
           id="g28"
           transform="translate(412.5527,194.3867)"><path
             d="m 0,0 c 0,1.409 -1.143,2.551 -2.552,2.551 -1.409,0 -2.551,-1.142 -2.551,-2.551 0,-1.409 1.142,-2.551 2.551,-2.551 C -1.143,-2.551 0,-1.409 0,0 Z"
             style="fill:none;stroke:#000000;stroke-width:0.99199998;stroke-linecap:round;stroke-linejoin:round;stroke-miterlimit:10;stroke-dasharray:none;stroke-opacity:1"
             id="path30"
             inkscape:connector-curvature="0" /></g><g
           id="g32"
           transform="translate(497.5918,290.7646)"><path
             d="M 0,0 C 0,1.409 -1.143,2.551 -2.551,2.551 -3.96,2.551 -5.103,1.409 -5.103,0 c 0,-1.409 1.143,-2.551 2.552,-2.551 C -1.143,-2.551 0,-1.409 0,0 Z"
             style="fill:none;stroke:#000000;stroke-width:0.99199998;stroke-linecap:round;stroke-linejoin:round;stroke-miterlimit:10;stroke-dasharray:none;stroke-opacity:1"
             id="path34"
             inkscape:connector-curvature="0" /></g><g
           id="g36"
           transform="translate(497.5918,194.3867)"><path
             d="M 0,0 C 0,1.409 -1.143,2.551 -2.551,2.551 -3.96,2.551 -5.103,1.409 -5.103,0 c 0,-1.409 1.143,-2.551 2.552,-2.551 C -1.143,-2.551 0,-1.409 0,0 Z"
             style="fill:none;stroke:#000000;stroke-width:0.99199998;stroke-linecap:round;stroke-linejoin:round;stroke-miterlimit:10;stroke-dasharray:none;stroke-opacity:1"
             id="path38"
             inkscape:connector-curvature="0" /></g><g
           id="g40"
           transform="translate(413.1191,236.4814)"><path
             d="M 0,0 13.606,0"
             style="fill:none;stroke:#000000;stroke-width:0.99199998;stroke-linecap:round;stroke-linejoin:round;stroke-miterlimit:10;stroke-dasharray:none;stroke-opacity:1"
             id="path42"
             inkscape:connector-curvature="0" /></g><g
           id="g44"
           transform="translate(413.1191,236.4814)"><path
             d="M 0,0 0,6.236"
             style="fill:none;stroke:#000000;stroke-width:0.99199998;stroke-linecap:round;stroke-linejoin:round;stroke-miterlimit:10;stroke-dasharray:none;stroke-opacity:1"
             id="path46"
             inkscape:connector-curvature="0" /></g><g
           id="g48"
           transform="translate(426.7256,242.7178)"><path
             d="M 0,0 -13.606,0"
             style="fill:none;stroke:#000000;stroke-width:0.99199998;stroke-linecap:round;stroke-linejoin:round;stroke-miterlimit:10;stroke-dasharray:none;stroke-opacity:1"
             id="path50"
             inkscape:connector-curvature="0" /></g><g
           id="g52"
           transform="translate(426.7256,242.7178)"><path
             d="M 0,0 0,-6.236"
             style="fill:none;stroke:#000000;stroke-width:0.99199998;stroke-linecap:round;stroke-linejoin:round;stroke-miterlimit:10;stroke-dasharray:none;stroke-opacity:1"
             id="path54"
             inkscape:connector-curvature="0" /></g></g></g></g></svg>